#!OML:ASF X:\für Bonn\!DataBase\2005_08_12_Daniel\c3d\Daniel.ASF
:FULLY-SPECIFIED
:DEGREES
220
root 14.9079 1.56111 0.879268 -964.629 -89.3809 -197.75
lowerback 66.9265 -4.72011 8.39816
upperback 15.3977 -5.2277 -3.78895
thorax -4.39139 -4.02391 -5.37376
lowerneck 0.681811 3.51068 -5.41185
upperneck 12.0742 4.80835 -2.21007
head 3.72781 1.92087 0.338937
rclavicle 2.32578e-014 -1.86858e-014
rhumerus -48.1411 8.18356 -97.274
rradius 24.4259
rwrist 31.6742
rhand -62.0821 -310.261
rfingers 7.12502
rthumb -34.1317 -337.015
lclavicle 2.32578e-014 -1.86858e-014
lhumerus -749.865 25.813 -639.198
lradius 29.968
lwrist 13.6732
lhand -66.5742 340.712
lfingers 7.12502
lthumb -38.3851 366.405
rfemur 306.939 -33.0966 392.533
rtibia 86.2058
rfoot 23.8133 5.42991
rtoes 12.8995
lfemur 48.308 76.9011 76.8777
ltibia 140.603
lfoot 47.8022 -23.992
ltoes 3.07661
221
root 14.9376 1.55878 0.864381 -931.346 -89.6871 -231.384
lowerback 66.6139 -4.72439 8.50408
upperback 15.4815 -5.1445 -3.82509
thorax -4.30383 -3.95396 -5.50514
lowerneck 0.993651 3.31059 -5.77437
upperneck 11.987 4.47505 -1.7187
head 3.62315 1.76685 0.5457
rclavicle -1.69215e-014 -2.26615e-014
rhumerus -48.7998 9.00085 -98.2023
rradius 25.3659
rwrist 29.9458
rhand -61.9107 -311.17
rfingers 7.12502
rthumb -33.9688 -337.96
lclavicle -1.69215e-014 -2.26615e-014
lhumerus -749.804 24.9977 -638.881
lradius 30.7914
lwrist 14.025
lhand -65.9695 342.158
lfingers 7.12502
lthumb -37.8141 368.008
rfemur 308.151 -32.8163 391.674
rtibia 84.8505
rfoot 23.7494 4.47018
rtoes 13.6371
lfemur 46.0951 76.9331 74.4638
ltibia 140.481
lfoot 47.3948 -23.9024
ltoes 2.85911
222
root 14.9665 1.55696 0.84965 -872.942 -89.6948 -290.129
lowerback 66.3157 -4.74015 8.65636
upperback 15.5475 -5.04097 -3.83769
thorax -4.22865 -3.87496 -5.6368
lowerneck 1.27901 3.11422 -6.14516
upperneck 11.9434 4.15511 -1.31006
head 3.54515 1.61204 0.729069
rclavicle 1.61513e-014 -2.38542e-015
rhumerus -49.4959 9.85659 -99.1283
rradius 26.341
rwrist 28.2049
rhand -61.772 -311.953
rfingers 7.12502
rthumb -33.8371 -338.773
lclavicle 1.61513e-014 -2.38542e-015
lhumerus -749.832 24.1674 -638.562
lradius 31.6698
lwrist 14.407
lhand -65.4058 343.656
lfingers 7.12502
lthumb -37.2814 369.647
rfemur 309.359 -32.471 390.932
rtibia 83.5113
rfoot 23.63 3.4141
rtoes 14.2832
lfemur 43.7132 76.9352 72.0212
ltibia 140.399
lfoot 47.0433 -23.6988
ltoes 3.01111
223
root 14.9926 1.55299 0.834619 -842.39 -89.5208 -321.031
lowerback 66.0411 -4.75346 8.79535
upperback 15.6113 -4.9454 -3.83134
thorax -4.15244 -3.8046 -5.7378
lowerneck 1.51001 2.92814 -6.40055
upperneck 11.9225 3.86437 -1.05017
head 3.493 1.46883 0.846896
rclavicle 3.31473e-014 2.3059e-014
rhumerus -50.1536 10.5998 -99.9422
rradius 27.2991
rwrist 26.6828
rhand -61.5927 -312.655
rfingers 7.12502
rthumb -33.6667 -339.512
lclavicle 3.31473e-014 2.3059e-014
lhumerus -749.981 23.2692 -638.25
lradius 32.7201
lwrist 14.9668
lhand -64.7768 345.066
lfingers 7.12502
lthumb -36.6864 371.211
rfemur 310.534 -32.1104 390.239
rtibia 82.2403
rfoot 23.4096 2.27318
rtoes 14.7516
lfemur 41.221 76.9218 69.5334
ltibia 140.34
lfoot 46.7307 -23.3672
ltoes 3.80624
224
root 15.0183 1.54896 0.82057 -832.41 -89.3083 -331.362
lowerback 65.7908 -4.73834 8.89112
upperback 15.6519 -4.84281 -3.7989
thorax -4.09839 -3.73714 -5.79271
lowerneck 1.7432 2.76525 -6.64928
upperneck 11.9309 3.60961 -0.869421
head 3.45335 1.33833 0.939305
rclavicle -3.02153e-014 -5.4467e-014
rhumerus -50.8709 11.4594 -100.779
rradius 28.2799
rwrist 25.1102
rhand -61.4701 -313.278
rfingers 7.12502
rthumb -33.5503 -340.161
lclavicle -3.02153e-014 -5.4467e-014
lhumerus -750.239 22.2967 -637.908
lradius 33.8724
lwrist 15.6737
lhand -64.2044 346.589
lfingers 7.12502
lthumb -36.1446 372.87
rfemur 311.671 -31.7023 389.603
rtibia 81.0403
rfoot 23.1356 1.28331
rtoes 15.0552
lfemur 38.7581 76.8824 67.1134
ltibia 140.284
lfoot 46.4637 -22.842
ltoes 4.95164
225
root 15.045 1.54482 0.80747 -826.833 -89.0864 -337.299
lowerback 65.5616 -4.70534 8.93656
upperback 15.6776 -4.75082 -3.74914
thorax -4.06066 -3.68053 -5.8013
lowerneck 1.95303 2.6359 -6.90376
upperneck 11.9764 3.39941 -0.669935
head 3.43079 1.22834 1.04131
rclavicle 2.96686e-014 3.51849e-014
rhumerus -51.6094 12.2127 -101.499
rradius 29.2494
rwrist 23.7833
rhand -61.3163 -313.957
rfingers 7.12502
rthumb -33.404 -340.871
lclavicle 2.96686e-014 3.51849e-014
lhumerus -750.476 21.564 -637.65
lradius 34.8483
lwrist 16.2664
lhand -63.6423 347.731
lfingers 7.12502
lthumb -35.612 374.142
rfemur 312.761 -31.262 388.965
rtibia 79.9458
rfoot 22.8067 0.434939
rtoes 15.3076
lfemur 36.2482 76.8271 64.6311
ltibia 140.19
lfoot 46.1968 -22.2287
ltoes 5.86658
